<svg xmlns="http://www.w3.org/2000/svg" viewBox="0 0 213.33 209.61"><defs><style>.cls-1{fill:#fff;}.cls-2{fill:none;}</style></defs><title>logo</title><g id="Layer_2" data-name="Layer 2"><g id="Layer_1-2" data-name="Layer 1"><path d="M79.83,205.55c-11-2.68-22.3-5.95-32.11-11.89-6.24-4.16-13.38-6.24-18.43-11.89C24.52,177,8.17,148.17,2.82,130.33c-3-9.81-3.27-19.62-2.38-29.73C1,92,4,83.66,5.2,75.33l.89-3.57C9.66,65.22,11.44,58.09,15,51.55c2.68-4.76,6.54-8.62,9.81-12.79,2.38-3.27,5.35-5.95,7.73-9.22,4.76-7.43,11.6-12.19,19.33-15.46C62,10.22,72.09,5.76,82.8,3.08,97.66-.48,112.53-.78,127.69,1.3c16.65,2.08,31.22,9.22,44.89,19,2.08,1.49,4.46,3.27,6.84,4.76,5.35,3.27,9.51,8,13.68,12.49,4.46,4.76,6.84,11,9.81,16.95.6,1.19.89,2.38,1.49,3.86,6.84,13.68,8.62,28.54,8.92,43.71.3,16.95-4.16,32.7-11.89,48.16l-11.3,22.6c-3.27,6.24-16.65,17.24-22.6,20.51q-4.46,2.23-8,4.46C150,204.36,139,207,127.69,208.53a93.84,93.84,0,0,1-18.14.89C99.15,210.31,89.64,207.93,79.83,205.55Z"/><path class="cls-1" d="M44.65,90.35A17.89,17.89,0,0,1,42.5,89,10.9,10.9,0,0,1,38,84a4,4,0,0,1-.54-1.51,30.19,30.19,0,0,1-.39-3.61,3.29,3.29,0,0,1,.54-1.95,1.26,1.26,0,0,1,1-.44,15.94,15.94,0,0,0,3-.34,6.4,6.4,0,0,1,1.36,0c.68,0,1,.34,1,1a10,10,0,0,1,0,2.1,6.25,6.25,0,0,0,.39,2.63,3.84,3.84,0,0,0,2.92,2.58,10.75,10.75,0,0,0,2.63.24.94.94,0,0,0,.49-.15,5.4,5.4,0,0,0,3.7-3.75,20.93,20.93,0,0,0,.58-4.58c0-1.27-.1-2.58,0-3.85,0-2.19-.1-4.24.15-6.43a22.32,22.32,0,0,0,0-3.12c0-1.22,0-2.44,0-3.65v-.15c-.15-1.46.29-2,1.71-2s2.63,0,3.95,0c.68,0,1,.34.93,1s0,1.61,0,2.44v2.34c.1,2,.19,3.61.19,5.16a18,18,0,0,1-.19,2.92q-.22,2.27-.29,4.53a37.59,37.59,0,0,1-.63,7,5.89,5.89,0,0,1-.78,2,13.47,13.47,0,0,0-1,1.66,6.44,6.44,0,0,1-1.17,1.32,11.88,11.88,0,0,1-2.83,2.29,10.51,10.51,0,0,1-6.63,1.51A11.09,11.09,0,0,1,44.65,90.35Z"/><path class="cls-1" d="M99.61,76c0,2.1-.24,6.72-.34,9.11,0,1.51.24,2.92.34,4.43,0,.68-.1.93-.73,1.07a8.14,8.14,0,0,1-3.41.29,5.09,5.09,0,0,0-1.22,0c-.58,0-.83-.19-.83-.68.1-1-.15-1.95,0-2.87a16.67,16.67,0,0,0,0-3.12c0-1.8-.15-3.61-.1-5.36a9.32,9.32,0,0,0-.1-2.34,1.64,1.64,0,0,1,0-.49c.29-1.8,0-3.7.24-5.51.1-.93,0-1.85,0-2.73.1-2.58.24-5.21.15-7.75,0-.39,0-.83-.1-1.32a1.21,1.21,0,0,1,1.07-1.46,12.58,12.58,0,0,1,3-.15c.44,0,3,0,3.22.39a31.49,31.49,0,0,0,2.73,4.87,38.67,38.67,0,0,1,3,4.92c1.07,1.95,3.07,4.24,3.65,4.24s2.87-3.31,3.56-4.19a22.21,22.21,0,0,0,2.48-3.75c1.17-2,4.87-7.21,4-5.7a.82.82,0,0,1,.73-.49,21,21,0,0,1,4.92-.24,2.44,2.44,0,0,0,.58-.1c.44-.1.78.15.73.58-.1,1.71,0,3.31,0,4.92,0,3.22-.1,6.33,0,9.45l.29,3.75a57.26,57.26,0,0,1,.19,7.11c0,2-.19,3.65-.19,5.21a10.1,10.1,0,0,1-.39,2,.93.93,0,0,1-1.07.58c-1.22-.15-2.39.19-3.51.15-.83,0-.93,0-1.07-.78a10.46,10.46,0,0,1,0-3c0-1.61,0-3.75,0-5.41a27.4,27.4,0,0,1,.15-4,25.81,25.81,0,0,0,0-3.36l0-7.31c0-.1,0-.24-.15-.29s-.15.15-.19.24c-.68,1.56-2,2.63-3.46,4.43a24.77,24.77,0,0,0-2.83,4.09,39,39,0,0,0-2,3.75,1.36,1.36,0,0,1-1.32.83,24.32,24.32,0,0,0-3.26,0c-.49,0-1.36-1.12-1.61-1.61-.15-.29-.93-1.46-1.07-1.8-.39-.88-1-1.22-2.48-3.61-.34-.44-1-1.46-2.29-3.22A11.79,11.79,0,0,1,99.9,67.5s-.1-.1-.15-.1-.1.15-.1.24C99.61,69,99.76,72.66,99.61,76Z"/><path class="cls-2" d="M59.53,90.84a1.91,1.91,0,0,1,.15-1.46l1-2.48a41.07,41.07,0,0,0,1.61-4,15.6,15.6,0,0,1,.83-2.1c.93-2.14,1.75-4.29,2.78-6.38a59.28,59.28,0,0,0,2.48-5.7c.63-1.8,1.51-3.51,2.1-5.31a16.66,16.66,0,0,1,1-2.1c.49-.83.78-1.75,1.22-2.63.15-.19.1-.44.15-.68.1-.58.29-.73.88-.88a10.56,10.56,0,0,1,1.75,0c.63,0,1.27,0,1.85,0a14.51,14.51,0,0,1,2.92.19c.1,0,.15,0,.24.1a.17.17,0,0,1,0,.1c.83,2.14,1.8,4.24,2.73,6.38s1.8,4.48,2.78,6.72a4.71,4.71,0,0,1,.39,1.17c.44,1.46,1.22,2.83,1.75,4.24.73,2,1.51,4,2.29,6,.88,2.29,2.19,4.39,3.12,6.63l.58,1.51a.94.94,0,0,1-.93.83c-1.46.1-3.95,0-5.6,0-.39,0-.88,0-1-.39-.29-1-.54-2-.88-3s-.93-2-1.22-3.07a1.91,1.91,0,0,0-.39-.68c-2.58.24-5.12,0-7.7.29s-5.07,0-7.6,0c-1.17,2.19-1.8,4.82-3.12,6.82-1.51,0-2.73,0-4.19,0a11,11,0,0,0-1.27,0C60.06,91,59.77,91.08,59.53,90.84ZM76.68,77.15c1.51,0,3.07,0,4.63-.15a94.49,94.49,0,0,0-5-11.06,5.28,5.28,0,0,1-.49,1.17c-1,2.68-1.95,5.46-3.22,8l-.54,1.41a.52.52,0,0,0,0,.68C73.56,77.15,75.12,77.2,76.68,77.15Z"/><path class="cls-1" d="M58.86,90.84A1.91,1.91,0,0,1,59,89.38l1-2.48a41.07,41.07,0,0,0,1.61-4,15.6,15.6,0,0,1,.83-2.1c.93-2.14,1.75-4.29,2.78-6.38a59.28,59.28,0,0,0,2.48-5.7c.63-1.8,1.51-3.51,2.1-5.31a16.66,16.66,0,0,1,1-2.1c.49-.83.78-1.75,1.22-2.63.15-.19.1-.44.15-.68.1-.58.29-.73.88-.88a10.56,10.56,0,0,1,1.75,0c.63,0,1.27,0,1.85,0a14.51,14.51,0,0,1,2.92.19c.1,0,.15,0,.24.1a.17.17,0,0,1,0,.1c.83,2.14,1.8,4.24,2.73,6.38s1.8,4.48,2.78,6.72a4.71,4.71,0,0,1,.39,1.17c.44,1.46,1.22,2.83,1.75,4.24.73,2,1.51,4,2.29,6,.88,2.29,2.19,4.39,3.12,6.63l.58,1.51a.94.94,0,0,1-.93.83c-1.46.1-3.95,0-5.6,0-.39,0-.88,0-1-.39-.29-1-.54-2-.88-3s-.93-2-1.22-3.07a1.91,1.91,0,0,0-.39-.68c-2.58.24-5.12,0-7.7.29s-5.07,0-7.6,0c-1.17,2.19-1.8,4.82-3.12,6.82-1.51,0-2.73,0-4.19,0a11,11,0,0,0-1.27,0C59.4,91,59.11,91.08,58.86,90.84ZM76,77.15c1.51,0,3.07,0,4.63-.15a94.49,94.49,0,0,0-5-11.06,5.28,5.28,0,0,1-.49,1.17c-1,2.68-1.95,5.46-3.22,8l-.54,1.41a.52.52,0,0,0,0,.68C72.9,77.15,74.46,77.2,76,77.15Z"/><path class="cls-1" d="M137.32,90.74c-1.22,0-2.44-.1-3.65,0a51,51,0,0,1-5.46.15c-1.8-.1-3.61,0-5.41,0H122a1.19,1.19,0,0,1-.63-1.17c0-.63.15-1.27.19-1.9,0-.93,0-1.9,0-2.83,0-.58,0-1.12,0-1.66a45.28,45.28,0,0,0,0-5.75c0-2.19.29-4.34.15-6.53,0-1.22-.19-2.44-.15-3.65,0-1-.15-1.9-.1-2.87.1-1.32,0-2.68,0-4,0-.68,0-1.41,0-2.09a1.27,1.27,0,0,1,.1-.83,4.86,4.86,0,0,1,2.19-.54,60.74,60.74,0,0,1,7.31.19c1.85.1,3.65.24,5.46.24,1,0,2-.1,3-.1,1.71,0,3.41,0,5.07.15a1.32,1.32,0,0,1,.54,1,19.94,19.94,0,0,1,0,3.41c0,.39,0,.78-.1,1.17,0,.68-.39,1-1.12.93a38.78,38.78,0,0,0-4.14-.15c-.63,0-1.32,0-2,0-2.44,0-4.82-.1-7.21-.24a8.23,8.23,0,0,0-2.44,0c0,2.48-.29,4.92-.29,7.36a.85.85,0,0,0,.73.19c2,0,4.09.15,6.19,0,1.22,0,2.44.1,3.65,0,.39,0,.83,0,1,.44a11.77,11.77,0,0,0,.19,3.7,9.4,9.4,0,0,1,0,1.17c0,.44-.34.73-.88.83s-.93,0-1.41.1c-1.75,0-3.51-.15-5.26-.15-1.22,0-2.44-.1-3.61,0l-.34,0a1,1,0,0,0-.15.73,50.1,50.1,0,0,1,0,5.41,3.74,3.74,0,0,0,.19,1.61c2.53.19,10.38-.24,11-.15.44.1,4.39.1,5.21.15a1.06,1.06,0,0,1,.78.34c.19.19.15.39.15.58,0,1.12.15,2.19.24,3.31a1.64,1.64,0,0,1-.24.83,1.46,1.46,0,0,1-1.85.83A32.92,32.92,0,0,0,137.32,90.74Z"/><path class="cls-1" d="M151,90.35A9.41,9.41,0,0,1,148,88.5a4.2,4.2,0,0,1-.63-.68,13.55,13.55,0,0,1-2.44-4,10.21,10.21,0,0,1-.49-3.17l.1-1.17c0-.44.15-.68.54-.78s2.44,0,3.17-.15c.54,0,1.71-.19,1.9.1a3.06,3.06,0,0,1,.19,1.56,4.6,4.6,0,0,0,2.48,4.48,7.84,7.84,0,0,0,5.85.58,7.2,7.2,0,0,0,3.46-2.34,3.75,3.75,0,0,0,.78-2.14c0-1.8-1.36-2.73-2.87-3.51a30.78,30.78,0,0,0-4.63-1.66c-3.17-1-4.48-1.51-6.77-3.56a6.15,6.15,0,0,1-2-2.83,5.52,5.52,0,0,1-.29-2.53,9.25,9.25,0,0,1,1-3.95,14.32,14.32,0,0,1,4.34-4.43A11.85,11.85,0,0,1,154,57.27a11.67,11.67,0,0,1,5.65-.15,11,11,0,0,1,4.53,1.9,8.57,8.57,0,0,1,1.9,1.85,9.13,9.13,0,0,1,1.8,3.22,13.54,13.54,0,0,1,.34,2.78c0,.49-.19.63-.73.78a5,5,0,0,1-1.71.15,18.74,18.74,0,0,0-2.34,0h-.54c-.49,0-.73-.24-.73-.78l0-1.75a2.79,2.79,0,0,0-1.27-2,7.12,7.12,0,0,0-3.7-.73,3.63,3.63,0,0,0-3.51,1.71,3.93,3.93,0,0,0-.15,3.75,7.67,7.67,0,0,0,3.22,2.48,39.17,39.17,0,0,0,4,1.32,15.84,15.84,0,0,1,4.58,1.95,8.5,8.5,0,0,1,3.7,5.85l0,.39a8.16,8.16,0,0,1-.24,4.19,7.3,7.3,0,0,1-2.68,3.8,15.77,15.77,0,0,1-5.51,2.73,14.1,14.1,0,0,1-4.48.68A14.27,14.27,0,0,1,151,90.35Z"/><path class="cls-1" d="M45.09,131.72a18.51,18.51,0,0,1-5.26-1.95c-1-.68-2.19-1-3-1.95a32.88,32.88,0,0,1-4.34-8.43,12.66,12.66,0,0,1-.39-4.87c.1-1.41.58-2.78.78-4.14l.15-.58c.58-1.07.88-2.24,1.46-3.31a17,17,0,0,1,1.61-2.1c.39-.54.88-1,1.27-1.51a6.71,6.71,0,0,1,3.17-2.53,44.63,44.63,0,0,1,5.07-1.8,19.67,19.67,0,0,1,7.36-.29,16,16,0,0,1,7.36,3.12c.34.24.73.54,1.12.78A10.24,10.24,0,0,1,65.26,107c.1.19.15.39.24.63A16.41,16.41,0,0,1,67,114.77,16.75,16.75,0,0,1,65,122.66l-1.85,3.7a12.84,12.84,0,0,1-3.7,3.36q-.73.37-1.32.73a11.65,11.65,0,0,1-5.21,1.75,15.38,15.38,0,0,1-3,.15A14.89,14.89,0,0,1,45.09,131.72Zm6.29-6.09a8.22,8.22,0,0,0,5.9-2.48,10.32,10.32,0,0,0,2.68-4.34,14.6,14.6,0,0,0,.44-6.48c-.15-1-2.39-5.6-5.26-6.38a24.84,24.84,0,0,0-5.26-1.17,13.54,13.54,0,0,0-7.26,1.95,4.82,4.82,0,0,0-1.41,1.22,30,30,0,0,0-1.8,2.53,5.14,5.14,0,0,0-1.07,2.78v2.63c.1.73,0,1.41.15,2A12.57,12.57,0,0,0,41,123.29a5.92,5.92,0,0,0,4.14,2.1,12.67,12.67,0,0,0,1.27.15,19,19,0,0,0,2.87.19C50,125.73,50.69,125.63,51.37,125.63Z"/><path class="cls-1" d="M80.24,131.67A33.8,33.8,0,0,1,76,130.16a9.06,9.06,0,0,1-2.63-1.9A17.37,17.37,0,0,1,70.69,125c-.44-.73-1-1.36-1.41-2a23.32,23.32,0,0,1-1.36-3c-1.07-2.63-.63-7.55-.1-9.21.19-.58.49-1.22.73-1.8.39-.83.68-1.66,1.07-2.44a10.69,10.69,0,0,1,2.58-3.31c.54-.54,1.12-1,1.66-1.51l.88-.58a21,21,0,0,1,5.41-2.19,16.39,16.39,0,0,1,2.68-.58,18,18,0,0,1,7.21.49c.93.34,1.85.58,2.73.93l1,.58a15.58,15.58,0,0,1,3,2.39,3.85,3.85,0,0,1,.88,1.41,1.72,1.72,0,0,1-.49.88,24,24,0,0,0-2.44,2.53,15,15,0,0,0-1.27,1.22.73.73,0,0,1-.54.19.74.74,0,0,1-.49-.29,21.52,21.52,0,0,0-2.49-2.24,5.53,5.53,0,0,0-2.63-1.27c-.58-.1-1.12-.1-1.71-.19a10.55,10.55,0,0,0-5.85.93,9.1,9.1,0,0,0-2.34,1.27,8.36,8.36,0,0,0-2.68,3.26,14.32,14.32,0,0,0-.93,6.24,3.82,3.82,0,0,0,.1.68c.83,3.07,1.56,4.29,2.53,5.31a10.19,10.19,0,0,0,3.12,2.24,10.43,10.43,0,0,0,7.55.93,7.13,7.13,0,0,0,2.83-1.46c.24-1.8-.1-3.95,0-5.75-4-.29-6.92.58-6.92-.68a9.39,9.39,0,0,0-.15-1.61,7.58,7.58,0,0,1,.1-2.78c.1-.73.44-.88,1.17-.78,1.07.19,2.19.1,3.31.19a17,17,0,0,0,2.73,0c1.66-.1,3.31.1,5,0a.81.81,0,0,1,.78.24,6.29,6.29,0,0,1,0,1.66,27.09,27.09,0,0,1,.19,4l.15,3.31a11.61,11.61,0,0,1-.24,4.09,7.67,7.67,0,0,1-1.22,2.34,8.19,8.19,0,0,1-5.36,3.17,23,23,0,0,1-7.06.29A10.93,10.93,0,0,1,80.24,131.67Z"/><path class="cls-1" d="M98.42,132.2a5.49,5.49,0,0,1-.49-2c.1-1.71.1-3.41.1-5.12,0-2.44-.1-4.87,0-7.26a6.51,6.51,0,0,1,0-1c.1-1.51.19-3,.24-4.48,0-.88.1-1.75,0-2.63-.1-1.66,0-3.31-.15-5,0-1.32.1-2.63.1-3.9a12.33,12.33,0,0,0,0-1.36,1.1,1.1,0,0,1,.39-.54,2.6,2.6,0,0,1,1.07-.15c1.61,0,3.22-.34,4.82-.34,1.12,0,2.29,0,3.41.19s2.1.15,3.12.19a24,24,0,0,1,4.92.68,11.77,11.77,0,0,1,3.22,1.41,1.06,1.06,0,0,0,.39.24,8.79,8.79,0,0,1,4,3.61,15.78,15.78,0,0,1,2,4.77,22.39,22.39,0,0,1,.29,2.53l.29,2.24a11,11,0,0,1,0,2.53,18.9,18.9,0,0,1-.54,3.31c-.39,1-.63,2-1,3a11.54,11.54,0,0,1-2.53,4.09,22.08,22.08,0,0,1-4.82,3.65,9,9,0,0,1-4.29,1.17c-1.41,0-2.78.19-4.14.24s-2.58,0-3.9,0c-1.66,0-3.31,0-5,0H98.71C98.56,132.35,98.47,132.3,98.42,132.2Zm15.2-6.68a6.34,6.34,0,0,0,3.46-2.14c.39-.49.78-1,1.12-1.46a8,8,0,0,0,1.17-2.73,29,29,0,0,0,.34-4.09,10.18,10.18,0,0,0-.39-2.44,11.24,11.24,0,0,0-2-4.53,8.32,8.32,0,0,0-5.12-2.92,21.84,21.84,0,0,0-6.19-.34,2.38,2.38,0,0,0-1,.15,15.8,15.8,0,0,0-.24,3c0,.88.1,1.75.15,2.63a25.07,25.07,0,0,1-.19,4.68,92.87,92.87,0,0,0-.15,9.74,1.24,1.24,0,0,0,.19.83,2.84,2.84,0,0,0,1.12.15,2.76,2.76,0,0,1,.63,0A21.87,21.87,0,0,0,113.62,125.53Z"/><path class="cls-1" d="M142.53,131.92a23.53,23.53,0,0,0-3.65,0,51,51,0,0,1-5.46.15c-1.8-.1-3.61,0-5.41,0h-.78a1.19,1.19,0,0,1-.63-1.17c0-.63.15-1.27.19-1.9,0-.93,0-1.9,0-2.83,0-.58,0-1.12,0-1.66a45.28,45.28,0,0,0,0-5.75c0-2.19.29-4.34.15-6.53,0-1.22-.19-2.44-.15-3.65,0-1-.15-1.9-.1-2.87.1-1.32,0-2.68,0-4,0-.68,0-1.41,0-2.09a1.26,1.26,0,0,1,.1-.83A4.86,4.86,0,0,1,129,98.2a60.74,60.74,0,0,1,7.31.19c1.85.1,3.65.24,5.46.24,1,0,2-.1,3-.1,1.71,0,3.41,0,5.07.15a1.32,1.32,0,0,1,.54,1,19.94,19.94,0,0,1,0,3.41c0,.39,0,.78-.1,1.17,0,.68-.39,1-1.12.93A38.78,38.78,0,0,0,145,105c-.63,0-1.32,0-2,0-2.44,0-4.82-.1-7.21-.24a8.23,8.23,0,0,0-2.44,0c0,2.48-.29,4.92-.29,7.36a.85.85,0,0,0,.73.19c2,0,4.09.15,6.19,0,1.22,0,2.44.1,3.65,0,.39,0,.83,0,1,.44a11.77,11.77,0,0,0,.19,3.7,9.4,9.4,0,0,1,0,1.17c0,.44-.34.73-.88.83s-.93,0-1.41.1c-1.75,0-3.51-.15-5.26-.15-1.22,0-2.44-.1-3.61,0l-.34,0a1,1,0,0,0-.15.73,50.1,50.1,0,0,1,0,5.41,3.74,3.74,0,0,0,.19,1.61c2.53.19,10.38-.24,11-.15.44.1,11.33.1,12.15.15a1.06,1.06,0,0,1,.78.34c.19.19.15.39.15.58,0,1.12.15,2.19.24,3.31a1.64,1.64,0,0,1-.24.83c-.39.83.47.35-.39.56C155,132.46,144.83,132.08,142.53,131.92Z"/><path class="cls-1" d="M152.8,130.55c0-1.36.15-2.73.1-4.14a25.79,25.79,0,0,1,.24-3.9c0-.49-.1-1-.1-1.46-.19-4.82.15-10.72.24-15.49,0-1.46.15-2.92.24-4.34a5.46,5.46,0,0,0,0-1.56c-.15-1.07,0-1.22,1-1.36a16.41,16.41,0,0,1,2.68,0c.68,0,1.32,0,2,0a1.25,1.25,0,0,1,1.27.58c.83,1.22,1.32,2.29,2.19,3.51,1,1.41,1.85,3.12,3.22,5.41a46.8,46.8,0,0,0,3.8,5.16,26.79,26.79,0,0,1,2.48,3.65,23,23,0,0,0,2.14,3.07c.24.24.29,0,.34-.15a8,8,0,0,0,.1-1.12c0-.83-.1-1.71,0-2.29.15-2.83.29-5.41.29-8,0-2,.24-4.14.1-6.24a14.2,14.2,0,0,1,0-3.22c.34-.78.83-.39,4.92-.44a2.81,2.81,0,0,1,.68.15c.63.19.83.39.73,1a52.43,52.43,0,0,0,0,6.19c0,1.85-.19,3.7-.24,5.6,0,1.22,0,2.44,0,3.65,0,2.73-.1,5.46-.19,8.19-.1,2.39,0,5.65,0,8,0,.73-.1.88-.83,1s-1.56,0-2.34.1a16.48,16.48,0,0,1-2.19,0c-.19,0-.34-.19-.44-.34a10.51,10.51,0,0,1-1-1.41l-1.85-3.12c-.73-1.22-1.71-2.39-2.53-3.61s-1.8-2.44-2.73-3.61-1.61-2.1-2.44-3.12l-3.51-4.39c-.73-.83-.63-1-.68-1.12s-.34-.19-.39.15a2.88,2.88,0,0,0-.1.68c0,1.75,0,3.51-.1,5.26-.1,2.44-.29,4.82-.15,8.14,0,.58-.1,1.17-.1,1.75v3a8.92,8.92,0,0,1-.29,1.22c0,.34-.44.39-.78.44-.68.15-1.41,0-2.14.15s-1.75,0-2.39,0C152.46,132.21,152.8,130.75,152.8,130.55Z"/></g></g></svg>