<svg aria-hidden="true" style="position: absolute; width: 0; height: 0; overflow: hidden;" version="1.1" xmlns="http://www.w3.org/2000/svg" xmlns:xlink="http://www.w3.org/1999/xlink">
<defs>
<symbol id="icon-facebook" viewBox="0 0 32 32">
<title>facebook</title>
<path fill="#3b5998" style="fill: var(--color1, #3b5998)" d="M30.235 0h-28.469c-0.975 0-1.765 0.791-1.765 1.765v28.469c0 0.976 0.791 1.765 1.765 1.765h15.325v-12.392h-4.172v-4.828h4.172v-3.567c0-4.132 2.525-6.38 6.212-6.38 1.767 0 3.285 0.129 3.728 0.188v4.32h-2.561c-2 0-2.389 0.961-2.389 2.361v3.081h4.779l-0.62 4.84h-4.159v12.376h8.153c0.977 0 1.767-0.789 1.767-1.765v-28.469c0-0.975-0.789-1.765-1.765-1.765z"></path>
</symbol>
<symbol id="icon-instagram" viewBox="0 0 32 32">
<title>instagram</title>
<path fill="#e4405f" style="fill: var(--color2, #e4405f)" d="M16 0c-4.347 0-4.889 0.020-6.596 0.096-1.704 0.080-2.864 0.348-3.884 0.744-1.052 0.408-1.945 0.956-2.835 1.845s-1.439 1.781-1.845 2.835c-0.396 1.020-0.665 2.18-0.744 3.884-0.080 1.707-0.096 2.249-0.096 6.596s0.020 4.889 0.096 6.596c0.080 1.703 0.348 2.864 0.744 3.884 0.408 1.051 0.956 1.945 1.845 2.835 0.889 0.888 1.781 1.439 2.835 1.845 1.021 0.395 2.181 0.665 3.884 0.744 1.707 0.080 2.249 0.096 6.596 0.096s4.889-0.020 6.596-0.096c1.703-0.080 2.864-0.349 3.884-0.744 1.051-0.408 1.945-0.957 2.835-1.845 0.888-0.889 1.439-1.78 1.845-2.835 0.395-1.020 0.665-2.181 0.744-3.884 0.080-1.707 0.096-2.249 0.096-6.596s-0.020-4.889-0.096-6.596c-0.080-1.703-0.349-2.865-0.744-3.884-0.408-1.052-0.957-1.945-1.845-2.835-0.889-0.889-1.78-1.439-2.835-1.845-1.020-0.396-2.181-0.665-3.884-0.744-1.707-0.080-2.249-0.096-6.596-0.096zM16 2.88c4.271 0 4.78 0.021 6.467 0.095 1.56 0.073 2.407 0.332 2.969 0.553 0.749 0.289 1.28 0.636 1.843 1.195 0.559 0.56 0.905 1.092 1.195 1.841 0.219 0.563 0.48 1.409 0.551 2.969 0.076 1.688 0.093 2.195 0.093 6.467s-0.020 4.78-0.099 6.467c-0.081 1.56-0.341 2.407-0.561 2.969-0.299 0.749-0.639 1.28-1.199 1.843-0.559 0.559-1.099 0.905-1.84 1.195-0.56 0.219-1.42 0.48-2.98 0.551-1.699 0.076-2.199 0.093-6.479 0.093-4.281 0-4.781-0.020-6.479-0.099-1.561-0.081-2.421-0.341-2.981-0.561-0.759-0.299-1.28-0.639-1.839-1.199-0.561-0.559-0.92-1.099-1.2-1.84-0.22-0.56-0.479-1.42-0.56-2.98-0.060-1.68-0.081-2.199-0.081-6.459 0-4.261 0.021-4.781 0.081-6.481 0.081-1.56 0.34-2.419 0.56-2.979 0.28-0.76 0.639-1.28 1.2-1.841 0.559-0.559 1.080-0.919 1.839-1.197 0.56-0.221 1.401-0.481 2.961-0.561 1.7-0.060 2.2-0.080 6.479-0.080l0.060 0.040zM16 7.784c-4.54 0-8.216 3.68-8.216 8.216 0 4.54 3.68 8.216 8.216 8.216 4.54 0 8.216-3.68 8.216-8.216 0-4.54-3.68-8.216-8.216-8.216zM16 21.333c-2.947 0-5.333-2.387-5.333-5.333s2.387-5.333 5.333-5.333 5.333 2.387 5.333 5.333-2.387 5.333-5.333 5.333zM26.461 7.46c0 1.060-0.861 1.92-1.92 1.92-1.060 0-1.92-0.861-1.92-1.92s0.861-1.919 1.92-1.919c1.057-0.001 1.92 0.86 1.92 1.919z"></path>
</symbol>
<symbol id="icon-soundcloud" viewBox="0 0 32 32">
<title>soundcloud</title>
<path fill="#f30" style="fill: var(--color3, #f30)" d="M1.567 16.3c-0.068 0-0.125 0.061-0.135 0.133l-0.311 2.872 0.311 2.807c0.009 0.077 0.067 0.131 0.135 0.131 0.067 0 0.12-0.053 0.132-0.131l0.34-2.807-0.36-2.872c0-0.076-0.060-0.133-0.12-0.133zM0.36 17.404c-0.080 0-0.121 0.049-0.139 0.125l-0.221 1.776 0.22 1.744c0 0.073 0.060 0.125 0.12 0.125s0.119-0.060 0.139-0.139l0.28-1.759-0.28-1.779c0-0.081-0.059-0.12-0.12-0.12zM2.799 15.74c-0.081 0-0.16 0.060-0.16 0.139l-0.28 3.417 0.3 3.277c0 0.080 0.060 0.16 0.159 0.16 0.081 0 0.14-0.081 0.161-0.16l0.339-3.299-0.339-3.397c-0.021-0.080-0.081-0.16-0.161-0.16zM4.077 15.599c-0.1 0-0.18 0.080-0.2 0.18l-0.257 3.52 0.28 3.392c0.021 0.103 0.1 0.184 0.199 0.184 0.1 0 0.18-0.081 0.2-0.2l0.32-3.376-0.32-3.497c0-0.1-0.080-0.18-0.18-0.18l-0.041-0.023zM5.617 16.079c-0.007-0.12-0.1-0.199-0.212-0.199-0.12 0-0.211 0.080-0.219 0.199l-0.289 3.24 0.267 3.417c0 0.12 0.1 0.209 0.212 0.209 0.099 0 0.197-0.091 0.197-0.211l0.303-3.417-0.303-3.259 0.044 0.020zM6.696 13.8c-0.135 0-0.24 0.12-0.24 0.241l-0.28 5.276 0.249 3.417c0 0.12 0.107 0.219 0.24 0.219 0.125 0 0.232-0.12 0.24-0.24l0.279-3.417-0.279-5.296c-0.011-0.139-0.117-0.24-0.24-0.24zM7.944 12.541c-0.14 0-0.26 0.12-0.271 0.259l-0.24 6.496 0.22 3.397c0 0.16 0.12 0.279 0.26 0.279 0.139 0 0.259-0.119 0.28-0.279l0.257-3.397-0.256-6.475c-0.021-0.16-0.14-0.28-0.28-0.28zM9.233 11.943c-0.161 0-0.281 0.119-0.3 0.279l-0.22 7.033 0.22 3.36c0.019 0.159 0.139 0.3 0.3 0.3 0.159 0 0.3-0.14 0.3-0.3l0.26-3.36-0.261-7.033c0-0.16-0.14-0.3-0.3-0.3zM10.892 11.981c0-0.18-0.14-0.32-0.32-0.32-0.159 0-0.32 0.14-0.32 0.32l-0.199 7.255 0.199 3.337c0.021 0.18 0.161 0.32 0.341 0.32s0.32-0.14 0.32-0.32l0.219-3.337-0.219-7.275-0.021 0.020zM11.891 11.803c-0.18 0-0.34 0.159-0.34 0.339l-0.2 7.096 0.2 3.297c0 0.2 0.16 0.34 0.34 0.34s0.34-0.16 0.34-0.36l0.2-3.299-0.22-7.076c0-0.197-0.16-0.36-0.361-0.36zM13.189 12.001c-0.219 0-0.379 0.18-0.379 0.38l-0.137 6.857 0.18 3.299c0 0.199 0.159 0.369 0.379 0.369 0.199 0 0.361-0.16 0.379-0.38l0.161-3.257-0.18-6.816c-0.016-0.219-0.18-0.38-0.38-0.38zM14.791 10.813c-0.060-0.039-0.14-0.059-0.22-0.059s-0.159 0.020-0.22 0.059c-0.12 0.072-0.199 0.2-0.199 0.34v0.081l-0.139 8.064 0.153 3.265v0.011c0.011 0.080 0.040 0.18 0.099 0.24 0.077 0.081 0.189 0.139 0.312 0.139 0.107 0 0.211-0.059 0.279-0.12 0.077-0.080 0.121-0.18 0.121-0.3l0.020-0.32 0.156-2.937-0.18-8.115c0-0.139-0.081-0.257-0.18-0.319l-0.003-0.029zM16.132 10.084c-0.060-0.060-0.12-0.081-0.2-0.081-0.099 0-0.199 0.021-0.279 0.081-0.1 0.081-0.159 0.2-0.159 0.32v0.039l-0.183 8.812 0.101 1.62 0.081 1.58c0 0.219 0.197 0.419 0.437 0.419 0.241 0 0.44-0.2 0.44-0.439l0.2-3.219-0.2-8.849c0-0.16-0.099-0.295-0.22-0.369zM28.064 15.033c-0.54 0-1.060 0.115-1.519 0.309-0.32-3.539-3.28-6.315-6.917-6.315-0.879 0-1.74 0.18-2.519 0.479-0.3 0.12-0.36 0.24-0.38 0.479v12.491c0.021 0.24 0.2 0.44 0.44 0.46h10.913c2.159 0.021 3.917-1.717 3.917-3.896s-1.759-3.936-3.917-3.936z"></path>
</symbol>
</defs>
</svg>
