<svg xmlns="http://www.w3.org/2000/svg" viewBox="0 0 213.33 209.61"><defs><style>.cls-1{fill:#fff;}</style></defs><title>wanna_chat</title><g id="Layer_2" data-name="Layer 2"><g id="Layer_1-2" data-name="Layer 1"><path d="M79.83,205.55c-11-2.68-22.3-5.95-32.11-11.89-6.24-4.16-13.38-6.24-18.43-11.89C24.52,177,8.17,148.17,2.82,130.33c-3-9.81-3.27-19.62-2.38-29.73C1,92,4,83.66,5.2,75.33l.89-3.57C9.66,65.22,11.44,58.09,15,51.55c2.68-4.76,6.54-8.62,9.81-12.79,2.38-3.27,5.35-5.95,7.73-9.22,4.76-7.43,11.6-12.19,19.33-15.46C62,10.22,72.09,5.76,82.8,3.08,97.66-.48,112.53-.78,127.69,1.3c16.65,2.08,31.22,9.22,44.89,19,2.08,1.49,4.46,3.27,6.84,4.76,5.35,3.27,9.51,8,13.68,12.49,4.46,4.76,6.84,11,9.81,16.95.6,1.19.89,2.38,1.49,3.86,6.84,13.68,8.62,28.54,8.92,43.71.3,16.95-4.16,32.7-11.89,48.16l-11.3,22.6c-3.27,6.24-16.65,17.24-22.6,20.51q-4.46,2.23-8,4.46C150,204.36,139,207,127.69,208.53a93.84,93.84,0,0,1-18.14.89C99.15,210.31,89.64,207.93,79.83,205.55Z"/><path class="cls-1" d="M49.91,96.52c-.09-.19-.14-.14-.19-.28-.28-1.6-.94-2.68-1.36-4.23-.09-.23-.14-.47-.23-.66a25.41,25.41,0,0,0-1-3.2,67.71,67.71,0,0,1-2.21-6.81A17.75,17.75,0,0,0,43.8,78c-.19-.42-.24-.94-.47-1.41,0,0-.09-.19-.19-.14s0,.09-.09.14a30.66,30.66,0,0,0-1,2.91,43.74,43.74,0,0,1-1.41,4.18,22,22,0,0,0-.8,2.49,40.51,40.51,0,0,1-1.36,4.23,29.74,29.74,0,0,0-1.55,6c0,.56-.24.71-.85.52a3.44,3.44,0,0,0-1.55,0,22.79,22.79,0,0,1-3.57,0,.56.56,0,0,1-.56-.42c-.28-.71-.61-1.41-.85-2.11-.56-1.74-.94-3.48-1.5-5.17-.33-.94-.52-1.93-.85-2.87-.47-1.46-.94-2.87-1.36-4.32-.33-1-.85-1.93-1.17-3-.75-2.21-1.6-4.42-2.21-6.67-.24-.94-.61-1.79-.89-2.68a14.71,14.71,0,0,1-.94-3.1,3.17,3.17,0,0,0-.33-.94,1.49,1.49,0,0,1-.14-.42.58.58,0,0,1,.52-.71l4,0a2.73,2.73,0,0,1,1.22.14.81.81,0,0,1,.71.8,15.12,15.12,0,0,0,.52,2.54l.75,2.4,1.27,3.76c1,3,2,6,3.1,8.88.33.85.61,1.65.89,2.49,0,.09,0,.24.14.24s.14-.14.19-.28c.66-1.64,1.32-3.29,1.88-5,.75-2.35,1.6-4.65,2.54-7,.42-1.13.75-2.3,1.08-3.43s.61-2,.94-3a8.91,8.91,0,0,0,.23-1.08c.09-.61.52-.85,1.08-.94a4.92,4.92,0,0,1,1.17-.09c1.27.09,3.38-.28,3.76.19a4.93,4.93,0,0,1,.56,1.36c.33,1,.61,2.07.89,3.1.19.61.42,1.22.66,1.83.61,1.6,1.08,3.24,1.55,4.84s1,3.2,1.64,4.79c.38.89.56,1.83.89,2.73l.56,1.46c0,.09,0,.19.14.19s.14-.14.19-.19c.47-1.36,1-2.73,1.46-4.09l1.41-4.46c.38-1.22.75-2.44,1.17-3.62s.89-2.3,1.32-3.48A42.7,42.7,0,0,0,60,65.4c0-.19.14-.38.19-.56a.49.49,0,0,1,.61-.38A5.37,5.37,0,0,0,62,64.37a26.33,26.33,0,0,1,3.85-.09H66c.71,0,.94.19.66.85A6.9,6.9,0,0,1,66,66.44c-.47.94-.75,1.88-1.17,2.87s-.8,2-1.17,3c-.56,1.41-1.08,2.82-1.55,4.28-.66,2.21-1.27,4.42-2,6.63-.47,1.55-.94,3.1-1.36,4.65a37.68,37.68,0,0,0-1.69,6.39,20.14,20.14,0,0,1-.7,2.4.47.47,0,0,1-.47.28l-1.6,0c-.52,0-3.1.09-3.62.14S50.14,97,49.91,96.52Z"/><path class="cls-1" d="M63.35,96.85a1.84,1.84,0,0,1,.14-1.41l1-2.4A39.47,39.47,0,0,0,66,89.14a15,15,0,0,1,.8-2C67.72,85,68.52,83,69.51,81a57.23,57.23,0,0,0,2.4-5.5c.61-1.74,1.46-3.38,2-5.12a16,16,0,0,1,1-2c.47-.8.75-1.69,1.17-2.54.14-.19.09-.42.14-.66.09-.56.28-.71.85-.85a10.1,10.1,0,0,1,1.69,0c.61,0,1.22,0,1.79,0a14,14,0,0,1,2.82.19c.09,0,.14,0,.23.09a.17.17,0,0,1,0,.09c.8,2.07,1.74,4.09,2.63,6.16S88,75.09,89,77.25a4.52,4.52,0,0,1,.38,1.13c.42,1.41,1.17,2.73,1.69,4.09.71,1.93,1.46,3.85,2.21,5.78.85,2.21,2.11,4.23,3,6.39l.56,1.46a.91.91,0,0,1-.89.8c-1.41.09-3.81,0-5.41,0-.37,0-.85,0-1-.38-.28-1-.52-1.93-.85-2.87s-.89-1.93-1.18-3a1.85,1.85,0,0,0-.37-.66c-2.49.24-4.94,0-7.43.28s-4.89,0-7.33,0c-1.13,2.12-1.74,4.65-3,6.58-1.46,0-2.63,0-4,0a10.45,10.45,0,0,0-1.22,0C63.87,97,63.58,97.08,63.35,96.85ZM79.89,83.64c1.46,0,3,0,4.46-.14a91,91,0,0,0-4.84-10.67A5.08,5.08,0,0,1,79,74c-1,2.58-1.88,5.26-3.1,7.75l-.52,1.36a.51.51,0,0,0,0,.66C76.88,83.64,78.39,83.69,79.89,83.64Z"/><path class="cls-1" d="M100.39,95.44c0-1.32.14-2.63.09-4a24.92,24.92,0,0,1,.24-3.76c0-.47-.09-.94-.09-1.41-.19-4.65.14-10.34.23-14.94,0-1.41.14-2.82.24-4.18a5.28,5.28,0,0,0,0-1.5c-.14-1,0-1.17.94-1.32a15.76,15.76,0,0,1,2.58,0c.66,0,1.27,0,1.93,0a1.2,1.2,0,0,1,1.22.56c.8,1.18,1.27,2.21,2.11,3.38.94,1.36,1.79,3,3.1,5.22a45.26,45.26,0,0,0,3.67,5A25.82,25.82,0,0,1,119,82a22.08,22.08,0,0,0,2.07,3c.24.23.28,0,.33-.14a7.74,7.74,0,0,0,.09-1.08c0-.8-.09-1.65,0-2.21.14-2.73.28-5.22.28-7.75,0-2,.23-4,.09-6a13.73,13.73,0,0,1,0-3.1c.33-.75.8-.38,4.75-.42a2.71,2.71,0,0,1,.66.14c.61.19.8.38.71,1a50.71,50.71,0,0,0,0,6c0,1.79-.19,3.57-.23,5.4,0,1.17,0,2.35,0,3.52,0,2.63-.09,5.26-.19,7.9-.09,2.3,0,5.45,0,7.75,0,.71-.09.85-.8.94s-1.5,0-2.26.09a15.94,15.94,0,0,1-2.12,0c-.19,0-.33-.19-.42-.33a10.17,10.17,0,0,1-1-1.36l-1.79-3c-.71-1.17-1.65-2.3-2.44-3.48s-1.74-2.35-2.63-3.48-1.55-2-2.35-3L108.19,78c-.71-.8-.61-1-.66-1.08s-.33-.19-.38.14a2.78,2.78,0,0,0-.09.66c0,1.69,0,3.38-.09,5.08-.09,2.35-.28,4.65-.14,7.85,0,.56-.09,1.13-.09,1.69v2.87a8.47,8.47,0,0,1-.28,1.17c0,.33-.42.38-.75.42-.66.14-1.36,0-2.07.14s-1.69,0-2.3,0C100.06,97,100.39,95.62,100.39,95.44Z"/><path class="cls-1" d="M131.45,95.44c0-1.32.14-2.63.09-4a24.92,24.92,0,0,1,.24-3.76c0-.47-.09-.94-.09-1.41-.19-4.65.14-10.34.23-14.94,0-1.41.14-2.82.24-4.18a5.28,5.28,0,0,0,0-1.5c-.14-1,0-1.17.94-1.32a15.76,15.76,0,0,1,2.58,0c.66,0,1.27,0,1.93,0a1.2,1.2,0,0,1,1.22.56c.8,1.18,1.27,2.21,2.11,3.38.94,1.36,1.79,3,3.1,5.22a45.26,45.26,0,0,0,3.67,5,25.82,25.82,0,0,1,2.4,3.52,22.08,22.08,0,0,0,2.07,3c.24.23.28,0,.33-.14a7.74,7.74,0,0,0,.09-1.08c0-.8-.09-1.65,0-2.21.14-2.73.28-5.22.28-7.75,0-2,.23-4,.09-6a13.73,13.73,0,0,1,0-3.1c.33-.75.8-.38,4.75-.42a2.71,2.71,0,0,1,.66.14c.61.19.8.38.71,1a50.71,50.71,0,0,0,0,6c0,1.79-.19,3.57-.23,5.4,0,1.17,0,2.35,0,3.52,0,2.63-.09,5.26-.19,7.9-.09,2.3,0,5.45,0,7.75,0,.71-.09.85-.8.94s-1.5,0-2.26.09a15.94,15.94,0,0,1-2.12,0c-.19,0-.33-.19-.42-.33a10.17,10.17,0,0,1-1-1.36l-1.79-3c-.71-1.17-1.65-2.3-2.44-3.48s-1.74-2.35-2.63-3.48-1.55-2-2.35-3L139.25,78c-.71-.8-.61-1-.66-1.08s-.33-.19-.38.14a2.78,2.78,0,0,0-.09.66c0,1.69,0,3.38-.09,5.08-.09,2.35-.28,4.65-.14,7.85,0,.56-.09,1.13-.09,1.69v2.87a8.47,8.47,0,0,1-.28,1.17c0,.33-.42.38-.75.42-.66.14-1.36,0-2.07.14s-1.69,0-2.3,0C131.12,97,131.45,95.62,131.45,95.44Z"/><path class="cls-1" d="M162.57,96.85a1.84,1.84,0,0,1,.14-1.41l1-2.4a39.47,39.47,0,0,0,1.55-3.9,15.17,15.17,0,0,1,.8-2c.89-2.07,1.69-4.14,2.68-6.16a57.23,57.23,0,0,0,2.4-5.5c.61-1.74,1.46-3.38,2-5.12a16,16,0,0,1,1-2c.47-.8.75-1.69,1.17-2.54.14-.19.09-.42.14-.66.09-.56.28-.71.85-.85a10.1,10.1,0,0,1,1.69,0c.61,0,1.22,0,1.79,0a14,14,0,0,1,2.82.19c.09,0,.14,0,.24.09a.17.17,0,0,1,0,.09c.8,2.07,1.74,4.09,2.63,6.16s1.74,4.32,2.68,6.49a4.52,4.52,0,0,1,.38,1.13c.42,1.41,1.18,2.73,1.69,4.09.71,1.93,1.46,3.85,2.21,5.78.85,2.21,2.11,4.23,3,6.39l.56,1.46a.91.91,0,0,1-.89.8c-1.41.09-3.81,0-5.4,0-.38,0-.85,0-1-.38-.28-1-.52-1.93-.85-2.87s-.89-1.93-1.17-3a1.85,1.85,0,0,0-.38-.66c-2.49.24-4.93,0-7.42.28s-4.89,0-7.33,0c-1.13,2.12-1.74,4.65-3,6.58-1.46,0-2.63,0-4,0a10.44,10.44,0,0,0-1.22,0C163.08,97,162.8,97.08,162.57,96.85Zm16.54-13.21c1.46,0,3,0,4.46-.14a91,91,0,0,0-4.84-10.67,5.08,5.08,0,0,1-.47,1.13c-1,2.58-1.88,5.26-3.1,7.75l-.52,1.36a.5.5,0,0,0,0,.66C176.1,83.64,177.6,83.69,179.11,83.64Z"/><path class="cls-1" d="M49.25,140.47A34.38,34.38,0,0,1,45,138.64a10.82,10.82,0,0,1-2.63-2.21,21.7,21.7,0,0,1-2.63-3.2,16.88,16.88,0,0,1-2.44-5.83,12.74,12.74,0,0,1-.28-2.73V123a13.65,13.65,0,0,1,1-4.14c.19-.61.52-1.17.75-1.74a18.43,18.43,0,0,1,2-3.1,16.94,16.94,0,0,1,1.79-1.88c.42-.33.75-.75,1.17-1A13.9,13.9,0,0,1,48.5,109a25.1,25.1,0,0,1,6.2-.71,14.55,14.55,0,0,1,6.3,1.46c1,.56,2.21.89,3.2,1.55.38.28.8.56,1.17.8a.85.85,0,0,1-.19,1.13,18.12,18.12,0,0,0-1.79,2.44,3.17,3.17,0,0,1-1.22,1.27,2.69,2.69,0,0,1-1.5-.85,7,7,0,0,0-4.09-1.65l-2.91-.14a8.82,8.82,0,0,0-3.62.8,14,14,0,0,0-3.81,2.4,8.52,8.52,0,0,0-2.07,3.57,17.9,17.9,0,0,0-.8,4.65,6.22,6.22,0,0,0,1.32,4.79,12.7,12.7,0,0,0,1.79,2,11.77,11.77,0,0,0,4,1.88,4,4,0,0,1,.8.24,6.1,6.1,0,0,0,4.09-.14,20.35,20.35,0,0,0,3.76-1.55c.38-.23,1.64-1.17,2-1.41S63.86,134,65,135.63c.09.33-.71,1.17-.85,1.32-2,2-1.08.85-3,2.16a13.78,13.78,0,0,1-7.9,2.21A11.35,11.35,0,0,1,49.25,140.47Z"/><path class="cls-1" d="M69.32,140.94a1,1,0,0,1-.14-.8,18.27,18.27,0,0,1,0-3.2c.14-1.08.09-2.21.14-3.29,0-1.83-.19-3.67,0-5.45.14-1.6.14-3.2.14-4.75a16.25,16.25,0,0,0-.28-3,30.85,30.85,0,0,1-.09-4.65c0-1.65.09-3.71.14-5.36a3.1,3.1,0,0,1,.09-1.46,1.18,1.18,0,0,1,1-.38c.75,0,3.9-.28,4.32-.28a1.29,1.29,0,0,1,1.22.75,51.24,51.24,0,0,0-.19,6.58c0,2.07-.28,4.14-.19,6.16a71.57,71.57,0,0,0,7.57.09c3.62,0,6.2-.14,6.77-.14a1.22,1.22,0,0,0,.19-.71v-3.48c0-.8.09-1.6.09-2.4-.09-1.41.24-3.05.28-4.46a9.81,9.81,0,0,0,0-1.17,1,1,0,0,1,.38-1,9.2,9.2,0,0,1,1.64-.19l4.09-.09c0,.09,0,.14,0,.19a9,9,0,0,1-.09,3.85,12.44,12.44,0,0,0-.09,1.36,38.36,38.36,0,0,1-.09,4.65c-.09,1.41-.09,2.82-.19,4.23s-.14,2.49-.19,3.71c0,.61,0,1.22.09,1.83,0,1.6-.19,3.15-.09,4.75,0,.66,0,1.32.09,1.93.14,1,.09,1.93.19,2.87a4.54,4.54,0,0,1,0,1.13c0,.52,0,1,0,1.55a1.45,1.45,0,0,1-.33.42h-.24c-1.6,0-3.24,0-4.84.14a1,1,0,0,1-.94-.38c.14-2.11.24-4.28.24-6.44s0-3.85-.24-6c-1.17,0-3.34-.14-6.86,0-3,.19-5.87.23-7.19.23a1,1,0,0,0-.14.66c0,1.55-.09,3.1-.14,4.65a49.41,49.41,0,0,0,0,5.26,7.2,7.2,0,0,0,.24,1.46.62.62,0,0,1-.33.42,1.19,1.19,0,0,1-.56.09,23.83,23.83,0,0,0-3.67.09A4.36,4.36,0,0,1,69.32,140.94Z"/><path class="cls-1" d="M100.34,140.85a1.84,1.84,0,0,1,.14-1.41l1-2.4a39.47,39.47,0,0,0,1.55-3.9,15.17,15.17,0,0,1,.8-2c.89-2.07,1.69-4.14,2.68-6.16a57.23,57.23,0,0,0,2.4-5.5c.61-1.74,1.46-3.38,2-5.12a16,16,0,0,1,1-2c.47-.8.75-1.69,1.17-2.54.14-.19.09-.42.14-.66.09-.56.28-.71.85-.85a10.1,10.1,0,0,1,1.69,0c.61,0,1.22,0,1.79,0a14,14,0,0,1,2.82.19c.09,0,.14,0,.24.09a.17.17,0,0,1,0,.09c.8,2.07,1.74,4.09,2.63,6.16s1.74,4.32,2.68,6.49a4.52,4.52,0,0,1,.38,1.13c.42,1.41,1.18,2.73,1.69,4.09.71,1.93,1.46,3.85,2.21,5.78.85,2.21,2.11,4.23,3,6.39l.56,1.46a.91.91,0,0,1-.89.8c-1.41.09-3.81,0-5.4,0-.38,0-.85,0-1-.38-.28-1-.52-1.93-.85-2.87s-.89-1.93-1.17-3a1.85,1.85,0,0,0-.38-.66c-2.49.24-4.93,0-7.42.28s-4.89,0-7.33,0c-1.13,2.12-1.74,4.65-3,6.58-1.46,0-2.63,0-4,0a10.44,10.44,0,0,0-1.22,0C100.86,141,100.57,141.08,100.34,140.85Zm16.54-13.21c1.46,0,3,0,4.46-.14a91,91,0,0,0-4.84-10.67A5.08,5.08,0,0,1,116,118c-1,2.58-1.88,5.26-3.1,7.75l-.52,1.36a.5.5,0,0,0,0,.66C113.87,127.64,115.38,127.69,116.88,127.64Z"/><path class="cls-1" d="M141.23,140.14c0-1.65-.09-3.29,0-4.94,0-.52,0-1.08.09-1.6.09-1.5,0-3,0-4.42s-.09-3-.09-4.51c0-1.08.09-2.16,0-3.24-.14-2.12,0-4.23,0-6.34v-.33c0-.28-.09-.42-.38-.47h-.19c-1.13,0-2.21-.24-3.38-.09a1.78,1.78,0,0,1-.71,0,20,20,0,0,1-2.91-.09c-.19,0-.38,0-.52-.09a.55.55,0,0,1-.38-.71c.24-1.08-.09-2.16,0-3.24.09-.47.19-.94.24-1.36s.28-.33.8-.28h.61c1.74,0,3.48.09,5.22.14,2.21,0,4.42-.09,6.67,0s4.46-.23,6.72,0a11.22,11.22,0,0,0,1.79,0c.71-.09,1.08.09,1,.61a8.27,8.27,0,0,0,.09,1c0,.38-.14,2.87-.24,3.67a.46.46,0,0,1-.52.38,13.92,13.92,0,0,1-2,.09,22.69,22.69,0,0,0-2.54,0c-.8,0-1.65,0-2.44-.09-.61,0-.71,0-.66.66.14,1.69-.14,3.38-.14,5.08,0,1.17-.19,2.35-.14,3.52,0,2.16-.19,4.32-.19,6.49s-.09,4.18.09,6.25a16.63,16.63,0,0,1,0,2.16,8.48,8.48,0,0,0,0,1.88c0,.56-.14.71-.75.66a15.42,15.42,0,0,0-3.29.14,3.3,3.3,0,0,1-1.17,0C141.42,140.89,141.23,140.75,141.23,140.14Z"/><path class="cls-1" d="M164.87,130.88a11.82,11.82,0,0,1,0-2.58,4.53,4.53,0,0,1,1.08-2.54,12.82,12.82,0,0,1,3.57-3.34,10.91,10.91,0,0,0,3.05-3,4.36,4.36,0,0,0,.85-2.21,3.32,3.32,0,0,0-.61-1.88,5.44,5.44,0,0,0-2.49-1.36,3.63,3.63,0,0,0-3.62.52,2,2,0,0,0-1,1.36c-.14.42-.28.61-.66.61l-2.4.19c-1.18,0-2.4,0-2.63,0-.47,0-.66-.19-.52-.56a4.49,4.49,0,0,1,.24-1.46,6.72,6.72,0,0,1,.66-1.6,7.68,7.68,0,0,1,3.34-3.24,11.22,11.22,0,0,1,4.56-1.13.4.4,0,0,1,.33-.09,4.55,4.55,0,0,1,1.79-.09c1.08.19,2.21.33,3.2.52a5.44,5.44,0,0,1,3.57,2.35,7.13,7.13,0,0,1,1.69,4.18l.33,2.3a6.05,6.05,0,0,1-.75,3.1,10.31,10.31,0,0,1-4.28,4.79,25.47,25.47,0,0,0-3.1,1.83,3.39,3.39,0,0,0-1.08,2.12v.09l-.24,1.88-2.07.19-2.54-.28Zm-.66,7.14a3.65,3.65,0,0,1,1.13-2.07,1.82,1.82,0,0,1,1.74-.56,2.66,2.66,0,0,1,2.44,4.14,5.72,5.72,0,0,1-.94,1.13,2.09,2.09,0,0,1-2.07.71A2.66,2.66,0,0,1,164.21,138Z"/></g></g></svg>